<svg width="20" height="22" viewBox="0 0 20 22" fill="none" xmlns="http://www.w3.org/2000/svg">
<rect width="20" height="22" fill="#E5E5E5"/>
<rect width="1600" height="1583" transform="translate(-1321 -345)" fill="white"/>
<g clip-path="url(#clip0_2_2)">
<rect width="48" height="48" transform="translate(-14 -13)" fill="white"/>
<path fill-rule="evenodd" clip-rule="evenodd" d="M19 4H15V3C15 1.3 13.7 0 12 0H8C6.3 0 5 1.3 5 3V4H1C0.4 4 0 4.4 0 5C0 5.6 0.4 6 1 6H2V19C2 20.7 3.3 22 5 22H15C16.7 22 18 20.7 18 19V6H19C19.6 6 20 5.6 20 5C20 4.4 19.6 4 19 4ZM7 3C7 2.4 7.4 2 8 2H12C12.6 2 13 2.4 13 3V4H7V3ZM15 20C15.6 20 16 19.6 16 19V6H4V19C4 19.6 4.4 20 5 20H15Z" fill="#212529"/>
<mask id="mask0_2_2" style="mask-type:alpha" maskUnits="userSpaceOnUse" x="0" y="0" width="20" height="22">
<path fill-rule="evenodd" clip-rule="evenodd" d="M19 4H15V3C15 1.3 13.7 0 12 0H8C6.3 0 5 1.3 5 3V4H1C0.4 4 0 4.4 0 5C0 5.6 0.4 6 1 6H2V19C2 20.7 3.3 22 5 22H15C16.7 22 18 20.7 18 19V6H19C19.6 6 20 5.6 20 5C20 4.4 19.6 4 19 4ZM7 3C7 2.4 7.4 2 8 2H12C12.6 2 13 2.4 13 3V4H7V3ZM15 20C15.6 20 16 19.6 16 19V6H4V19C4 19.6 4.4 20 5 20H15Z" fill="white"/>
</mask>
<g mask="url(#mask0_2_2)">
<path fill-rule="evenodd" clip-rule="evenodd" d="M-2 -1H22V23H-2V-1Z" fill="#212529"/>
</g>
</g>
<defs>
<clipPath id="clip0_2_2">
<rect width="1131" height="240" fill="white" transform="translate(-1097 -109)"/>
</clipPath>
</defs>
</svg>
